<svg width="70" height="70" viewBox="0 0 70 70" fill="none" xmlns="http://www.w3.org/2000/svg">
<path d="M41.3 46.3394V29.75C41.3 29.5567 41.4567 29.4 41.65 29.4H56.613C56.9162 29.4 57.076 29.7593 56.8729 29.9844L41.9099 46.5738C41.6952 46.8119 41.3 46.66 41.3 46.3394Z" fill="#007AEB"/>
<path d="M39.4079 13.65H28C27.8067 13.65 27.65 13.8067 27.65 14V56.779C27.65 57.1068 28.0604 57.2548 28.2695 57.0023L37.7195 45.5971C37.7716 45.5344 37.8 45.4554 37.8 45.3738V26.25C37.8 26.0567 37.9567 25.9 38.15 25.9H51.2879C51.6021 25.9 51.7572 25.5181 51.5319 25.299L39.6519 13.749C39.5866 13.6855 39.499 13.65 39.4079 13.65Z" fill="#007AEB"/>
<path d="M24.15 29.3088L24.15 12.25C24.15 12.0567 23.9933 11.9 23.8 11.9H12.95C12.7567 11.9 12.6 12.0567 12.6 12.25V19.4452C12.6 19.5438 12.6416 19.6378 12.7146 19.7041L23.5646 29.5678C23.7894 29.7722 24.15 29.6126 24.15 29.3088Z" fill="#007AEB"/>
</svg>
